<svg xmlns="http://www.w3.org/2000/svg" width="1024" height="1024" viewBox="0 0 1024 1024"><rect x="24" y="24" width="976" height="976" rx="220" fill="#191919"/><svg x="24" y="24" width="976" height="976" viewBox="0 0 1800 1800"><g transform="translate(0.000000,1800.000000) scale(0.100000,-0.100000)" fill="#FFFFFF" stroke="none"> <path d="M9005 14013 c-152 -19 -325 -52 -470 -89 -110 -29 -335 -99 -390 -123 -11 -5 -45 -19 -75 -31 -50 -20 -323 -153 -377 -184 -226 -128 -511 -348 -684 -527 -132 -136 -278 -319 -345 -432 -16 -27 -37 -61 -46 -75 -127 -202 -234 -494 -282 -768 -18 -104 -21 -364 -5 -434 6 -25 14 -65 19 -90 9 -50 36 -125 70 -193 45 -89 133 -164 229 -193 84 -25 233 -13 326 26 53 23 169 80 197 98 23 14 166 103 233 145 11 6 38 23 60 37 22 14 47 29 55 33 8 4 38 21 65 38 28 16 64 37 80 45 17 8 59 31 95 50 143 79 335 170 410 194 14 5 50 18 80 30 65 24 153 54 230 76 30 9 75 22 100 30 25 8 55 14 68 14 12 0 48 6 80 14 159 40 448 57 617 36 308 -38 435 -74 650 -181 193 -96 350 -224 464 -378 62 -84 151 -254 151 -289 0 -11 8 -37 17 -58 13 -31 17 -73 17 -204 1 -168 -6 -216 -51 -335 -150 -398 -550 -689 -1053 -765 -36 -5 -94 -14 -130 -20 -231 -35 -748 10 -1092 96 -153 38 -186 46 -228 60 -25 8 -53 14 -62 14 -10 0 -32 6 -50 14 -18 8 -80 29 -138 47 -143 44 -205 64 -270 89 -30 12 -68 26 -85 31 -16 5 -39 13 -50 18 -11 5 -42 16 -70 26 -27 9 -84 30 -125 47 -41 16 -92 36 -112 44 -21 8 -57 21 -80 30 -24 9 -59 22 -78 29 -19 7 -69 26 -110 43 -153 61 -356 135 -415 152 -28 8 -53 16 -135 45 -32 12 -83 27 -200 61 -66 19 -155 41 -235 58 -38 8 -102 22 -141 31 -40 8 -86 15 -103 15 -16 0 -76 7 -133 16 -80 13 -145 15 -307 11 -113 -3 -228 -10 -256 -16 -27 -6 -84 -18 -125 -27 -41 -9 -86 -21 -100 -26 -14 -6 -38 -14 -55 -19 -83 -22 -220 -88 -321 -155 -174 -115 -342 -310 -423 -489 -12 -27 -26 -58 -31 -67 -31 -57 -76 -233 -89 -344 -18 -154 -9 -299 30 -454 84 -341 313 -611 614 -723 120 -45 168 -52 335 -52 169 0 176 1 350 53 30 9 64 22 75 29 11 7 25 13 33 13 7 0 91 38 185 84 299 145 399 189 537 231 30 10 73 24 95 31 23 8 49 14 59 14 11 0 42 6 70 14 107 31 343 69 536 87 213 21 685 23 965 5 138 -9 338 -22 445 -28 449 -29 930 -7 1163 53 22 6 62 15 90 20 29 5 75 15 102 23 28 8 75 21 105 30 45 12 171 56 265 91 66 25 333 155 380 185 17 11 39 24 50 30 62 31 258 165 330 225 159 132 221 188 313 283 161 166 316 361 417 523 149 241 264 468 340 669 9 25 23 60 31 78 8 18 14 39 14 47 0 8 6 29 14 47 20 50 64 208 89 328 46 214 51 270 51 525 0 213 -4 268 -22 370 -32 172 -70 323 -91 364 -6 11 -11 27 -11 36 0 13 -45 118 -70 165 -5 8 -27 51 -50 95 -140 274 -377 541 -648 730 -136 95 -361 216 -502 270 -25 9 -60 23 -78 31 -18 8 -39 14 -47 14 -8 0 -29 6 -47 14 -90 38 -340 93 -548 121 -149 19 -596 19 -755 -2z"/> <path d="M13015 11574 c-38 -14 -82 -29 -96 -33 -37 -12 -65 -29 -149 -93 -140 -104 -232 -231 -334 -462 -14 -32 -26 -65 -26 -72 0 -7 -6 -28 -14 -46 -38 -88 -83 -311 -120 -598 -8 -63 -22 -164 -31 -225 -8 -60 -15 -123 -15 -140 0 -58 -74 -434 -110 -560 -41 -140 -109 -337 -121 -349 -5 -6 -9 -18 -9 -27 0 -10 -6 -30 -14 -46 -7 -15 -36 -73 -62 -128 -94 -192 -192 -343 -316 -485 -291 -335 -615 -526 -1058 -624 -238 -52 -703 -39 -1030 29 -36 7 -103 21 -150 30 -47 9 -114 24 -150 32 -36 8 -94 21 -130 30 -36 8 -90 20 -120 28 -30 7 -91 21 -135 30 -44 9 -105 23 -135 30 -30 7 -91 21 -135 30 -601 126 -716 140 -1195 140 -386 0 -486 -8 -667 -50 -34 -8 -71 -15 -84 -15 -21 0 -42 -5 -189 -47 -104 -30 -360 -125 -385 -143 -5 -5 -44 -25 -85 -47 -41 -21 -95 -51 -120 -67 -71 -45 -195 -129 -200 -136 -3 -3 -32 -27 -65 -52 -94 -72 -253 -234 -337 -345 -43 -56 -78 -104 -78 -106 0 -3 -16 -29 -35 -59 -38 -56 -175 -329 -175 -347 0 -6 -6 -25 -14 -43 -33 -78 -70 -222 -92 -358 -13 -77 -17 -163 -17 -325 1 -272 17 -386 93 -650 25 -88 69 -199 133 -335 43 -92 235 -395 266 -420 3 -3 33 -36 65 -75 98 -115 271 -279 396 -375 65 -49 122 -90 125 -90 4 0 24 -13 45 -30 21 -16 40 -30 43 -30 3 0 38 -19 79 -43 74 -43 98 -55 243 -123 85 -40 218 -90 273 -104 19 -5 46 -13 60 -18 106 -39 342 -86 587 -117 340 -43 944 2 1234 91 25 8 53 14 62 14 10 0 33 6 51 14 18 7 58 21 88 30 54 17 82 27 170 62 154 60 411 188 517 257 24 15 45 27 47 27 3 0 53 33 113 72 59 40 116 77 125 83 9 5 50 33 90 61 198 138 305 210 438 296 418 271 740 388 1064 388 186 0 413 -50 676 -150 30 -12 73 -28 95 -36 22 -9 54 -19 70 -23 17 -5 41 -13 55 -19 40 -16 216 -64 300 -82 30 -6 131 -18 224 -26 146 -12 191 -12 320 0 83 8 174 20 201 26 153 36 175 43 285 85 103 39 130 52 225 108 206 121 414 319 517 493 18 31 42 70 52 88 29 48 110 234 128 296 39 133 48 172 63 285 19 150 19 237 0 373 -28 194 -53 286 -117 432 -121 274 -324 495 -570 620 -162 82 -287 110 -485 110 -172 0 -323 -26 -453 -78 -14 -5 -45 -18 -70 -27 -207 -81 -450 -238 -666 -430 -6 -5 -46 -41 -90 -80 -89 -78 -322 -310 -434 -431 -41 -44 -98 -105 -126 -135 -27 -30 -76 -83 -109 -119 -57 -64 -221 -239 -400 -430 -171 -182 -443 -446 -550 -535 -27 -22 -65 -54 -84 -71 -62 -53 -192 -149 -307 -225 -144 -96 -146 -98 -164 -106 -8 -4 -33 -18 -55 -32 -50 -31 -271 -141 -305 -152 -14 -4 -50 -17 -80 -29 -30 -12 -68 -26 -85 -30 -16 -5 -61 -18 -100 -30 -232 -68 -529 -86 -730 -43 -75 15 -204 61 -270 95 -44 23 -165 111 -205 149 -91 88 -156 189 -201 319 -33 92 -34 286 -2 377 53 149 164 293 313 408 32 25 61 45 64 45 3 0 22 12 43 26 102 69 308 150 503 197 139 33 484 77 605 77 123 0 511 46 645 76 106 25 183 45 215 55 17 6 44 14 60 19 116 32 360 139 475 209 19 11 42 24 50 28 23 11 201 133 236 162 124 105 252 218 289 256 50 52 199 211 280 300 102 113 328 341 401 406 90 80 205 168 314 240 109 72 369 209 434 228 17 5 56 19 86 31 64 25 137 47 198 60 23 5 51 14 61 20 11 5 30 10 42 10 12 0 45 6 73 14 28 8 87 22 131 31 436 94 699 247 911 530 155 206 235 393 290 675 13 69 15 128 11 310 -4 240 -15 314 -72 515 -58 202 -145 395 -243 544 -23 34 -42 65 -42 68 0 15 -256 313 -269 313 -3 0 -19 13 -36 28 -96 89 -257 189 -365 226 -114 38 -160 46 -277 45 -98 0 -130 -5 -188 -25z"/> </g> </svg></svg>